<svg xmlns="http://www.w3.org/2000/svg" viewBox="0 0 24 24">
  <rect x="3" y="6.5" width="18" height="11" rx="2" fill="#B0B0B0" opacity="0.95"></rect>
  <g fill="#222222">
    <rect x="5" y="9" width="2" height="1.5" rx="0.3"></rect>
    <rect x="8" y="9" width="2" height="1.5" rx="0.3"></rect>
    <rect x="11" y="9" width="2" height="1.5" rx="0.3"></rect>
    <rect x="14" y="9" width="2" height="1.5" rx="0.3"></rect>
    <rect x="17" y="9" width="2" height="1.5" rx="0.3"></rect>
    <rect x="5" y="11.5" width="2" height="1.5" rx="0.3"></rect>
    <rect x="8" y="11.5" width="2" height="1.5" rx="0.3"></rect>
    <rect x="11" y="11.5" width="2" height="1.5" rx="0.3"></rect>
    <rect x="14" y="11.5" width="2" height="1.5" rx="0.3"></rect>
    <rect x="17" y="11.5" width="2" height="1.5" rx="0.3"></rect>
    <rect x="7" y="14" width="10" height="1.8" rx="0.9"></rect>
  </g>
</svg>
